<svg xmlns="http://www.w3.org/2000/svg" viewBox="0 0 24 24" fill="#0ea5a4" stroke="none"><path d="M6.984,18.999c-0.509,0-1.017-0.193-1.404-0.58c-0.774-0.775-0.774-2.035,0-2.808l4.738-4.738 c-0.72-2.139,0.287-4.526,2.386-5.476c0.944-0.427,2.015-0.511,3.016-0.237c0.343,0.094,0.602,0.354,0.693,0.696 c0.093,0.351-0.011,0.731-0.272,0.993l-1.973,1.972l1.013,1.013l1.967-1.975c0.259-0.26,0.639-0.365,0.991-0.273 c0.343,0.09,0.604,0.35,0.698,0.693c0.315,1.147,0.165,2.348-0.423,3.382c-0.588,1.034-1.544,1.777-2.69,2.092 c-0.858,0.235-1.765,0.208-2.599-0.073l-4.739,4.739C8.001,18.806,7.493,18.999,6.984,18.999z M14.542,6.274 c-0.45,0-0.898,0.095-1.313,0.282c-1.598,0.723-2.309,2.612-1.586,4.21c0.109,0.241,0.057,0.525-0.13,0.712L6.48,16.51 c-0.278,0.278-0.278,0.731,0,1.009c0.278,0.278,0.73,0.278,1.008,0l5.032-5.032c0.188-0.188,0.471-0.239,0.713-0.13 c0.674,0.306,1.44,0.365,2.155,0.169c0.819-0.225,1.501-0.756,1.922-1.495c0.337-0.594,0.473-1.265,0.396-1.93l-1.633,1.632 c-0.496,0.486-1.296,0.486-1.786,0.004l-1.022-1.022C12.78,9.22,12.78,8.421,13.26,7.93c0.002-0.002,0.003-0.003,0.005-0.005 l1.632-1.631C14.78,6.28,14.66,6.274,14.542,6.274z M18.051,8.757L18.051,8.757C18.05,8.757,18.05,8.757,18.051,8.757z"/></svg>